<?xml version="1.0" encoding="UTF-8"?>
<svg width="228px" height="71px" viewBox="0 0 228 71" version="1.1" xmlns="http://www.w3.org/2000/svg" xmlns:xlink="http://www.w3.org/1999/xlink">
    <!-- Generator: sketchtool 53.1 (72631) - https://sketchapp.com -->
    <title>AF4A0AAE-55A2-478E-9622-9BA774C91D98</title>
    <desc>Created with sketchtool.</desc>
    <defs>
        <polygon id="path-1" points="0 32.9198966 76.3534884 32.9198966 76.3534884 0 0 0"></polygon>
    </defs>
    <g id="Desktop-(Landing,-Blog,-Itinerary)" stroke="none" stroke-width="1" fill="none" fill-rule="evenodd">
        <g id="Destination---dropdown" transform="translate(-606.000000, -65.000000)">
            <g id="header">
                <g id="logoWTextBig" transform="translate(606.000000, 65.000000)">
                    <g id="logotype" transform="translate(0.000000, 50.790698)" fill="#FEFEFE">
                        <path d="M228,13.2433418 C228,14.8332438 227.444545,16.1755965 226.335849,17.2703999 C225.136885,18.4550221 223.581832,19.0465116 221.671242,19.0465116 C220.295064,19.0465116 218.998079,18.6647818 217.780286,17.9051558 C217.37214,17.6559635 216.888124,17.2676615 216.334884,16.7364163 L217.660666,15.4362346 C218.125853,15.8979251 218.519601,16.2352932 218.840801,16.4505297 C219.842615,17.1438869 220.824491,17.4894701 221.789754,17.4894701 C223.025269,17.4894701 224.05311,17.1181461 224.874941,16.3749504 C225.698986,15.6312071 226.111009,14.6853714 226.111009,13.5363482 C226.111009,12.1195116 225.315207,11.1035735 223.721942,10.4830572 C222.238881,10.0252004 220.759698,9.55474716 219.294913,9.07662643 C217.683372,8.3142621 216.878156,7.03489208 216.878156,5.23030123 C216.878156,3.84961124 217.382108,2.65403558 218.382814,1.64576494 C219.473788,0.548223198 220.869903,0 222.568389,0 C223.496547,0 224.490608,0.187852704 225.546693,0.564105788 C225.887276,0.68733278 226.314805,0.877376186 226.83371,1.12602087 L226.18854,2.59707733 C225.706739,2.35445707 225.315207,2.1792009 225.011728,2.07569023 C224.064186,1.73175 223.204698,1.55813686 222.436032,1.55813686 C221.311276,1.55813686 220.380902,1.9623214 219.649341,2.77616722 C219.004724,3.48102562 218.684632,4.24174692 218.684632,5.05394972 C218.684632,6.25554981 219.485971,7.15702372 221.09142,7.75727609 C222.575034,8.28797367 224.064186,8.80826542 225.562753,9.32088971 C227.185923,10.1697868 228,11.4776359 228,13.2433418" id="Fill-1"></path>
                        <polygon id="Fill-3" points="213.153488 19.0465116 210.749865 19.0465116 199.173705 1.94332628 199.173705 19.0465116 197.246512 19.0465116 197.246512 0.00337773977 199.795381 0 211.22573 17.0046679 211.22573 0.00337773977 213.153488 0.00337773977"></polygon>
                        <path d="M194.065116,9.51119343 C194.065116,12.1846574 193.14433,14.4408723 191.305497,16.2853212 C189.46502,18.1242872 187.206602,19.0465116 184.532981,19.0465116 C181.843475,19.0465116 179.576293,18.1242872 177.737459,16.2853212 C175.896435,14.4408723 174.976744,12.1846574 174.976744,9.51119343 C174.976744,6.85472648 175.896435,4.60454271 177.737459,2.76283528 C179.576293,0.921127858 181.843475,0 184.532981,0 C187.206602,0 189.46502,0.911806921 191.305497,2.73816222 C193.14433,4.56013119 194.065116,6.81853931 194.065116,9.51119343 M192.198347,9.44320542 C192.198347,7.37231261 191.472564,5.55911628 190.02045,4.00251986 C188.497127,2.37135594 186.644052,1.55933787 184.468345,1.55933787 C182.306333,1.55933787 180.495435,2.34503801 179.035105,3.92192117 C177.574226,5.49715947 176.844061,7.36408825 176.844061,9.52435239 C176.844061,11.6829717 177.579156,13.5515453 179.047703,15.125687 C180.519537,16.6992805 182.333173,17.4888186 184.492994,17.4888186 C186.707592,17.4888186 188.544234,16.6789937 190.008947,15.0598922 C191.468182,13.4396941 192.198347,11.5672824 192.198347,9.44320542" id="Fill-5"></path>
                        <polygon id="Fill-7" points="170.734884 19.0465116 172.855814 19.0465116 172.855814 0 170.734884 0"></polygon>
                        <polygon id="Fill-9" points="167.553488 0 167.060664 1.59908041 162.618039 1.59908041 162.618039 19.0465116 160.573507 19.0465116 160.573507 1.59908041 155.888372 1.59908041 155.888372 0"></polygon>
                        <polygon id="Fill-10" points="151.646512 19.0465116 153.767442 19.0465116 153.767442 0 151.646512 0"></polygon>
                        <path d="M148.465116,9.44020498 C148.465116,12.0955794 147.560537,14.3624448 145.749184,16.2374228 C143.938928,18.1084595 141.731273,19.0465116 139.122375,19.0465116 L135.739535,19.0465116 L135.739535,0 L138.934104,0 C141.705475,0 143.983938,0.908773162 145.777726,2.7274456 C147.568222,4.54780721 148.465116,6.78483061 148.465116,9.44020498 M146.594482,9.41374133 C146.594482,7.26455474 145.868843,5.42617532 144.415369,3.89466169 C142.962444,2.36427417 141.137368,1.59908041 138.940142,1.59908041 L137.612913,1.59908041 L137.612913,17.4463051 L139.019731,17.4463051 C141.111021,17.4463051 142.895479,16.6856158 144.374751,15.1659264 C145.854572,13.6445477 146.594482,11.7273404 146.594482,9.41374133" id="Fill-11"></path>
                        <polygon id="Fill-12" points="131.497674 17.4463051 130.979765 19.0465116 120.893023 19.0465116 120.893023 0 131.441121 0 130.979765 1.59908041 122.922992 1.59908041 122.922992 8.53086876 130.519599 8.53086876 130.519599 10.1305122 122.922992 10.1305122 122.922992 17.4463051"></polygon>
                        <path d="M118.772093,4.98924349 C118.772093,6.64688177 118.355837,7.95429893 117.524496,8.91994079 C116.577236,10.0105812 115.179764,10.5578721 113.327396,10.5578721 L109.100438,10.5578721 L109.100438,19.0465116 L107.106977,19.0465116 L107.106977,0 L112.611389,0 C114.523473,0 116.025741,0.444814621 117.124048,1.33613303 C118.22294,2.22745144 118.772093,3.44590567 118.772093,4.98924349 M116.731795,5.29104176 C116.731795,4.12382568 116.377597,3.21617863 115.669787,2.57035284 C114.957293,1.92171177 113.987785,1.59908041 112.760094,1.59908041 L109.100438,1.59908041 L109.100438,8.95879169 L112.532939,8.95879169 C113.894699,8.95879169 114.933875,8.64854757 115.652809,8.02637016 C116.371743,7.40588191 116.731795,6.49373041 116.731795,5.29104176" id="Fill-13"></path>
                        <polygon id="Fill-14" points="106.046512 19.0363853 103.720719 19.0465116 98.6490788 10.7761085 93.5344005 19.0335724 91.2 19.0363853 97.4612202 9.22171605 91.5098762 0.00618831604 93.8224706 0.00112514837 98.5985805 7.71739268 103.450438 0 105.767049 0.00618831604 99.787013 9.22171605"></polygon>
                        <polygon id="Fill-15" points="89.0790698 17.4463051 88.5611308 19.0465116 78.4744186 19.0465116 78.4744186 0 89.0207272 0 88.5611308 1.59908041 80.5033105 1.59908041 80.5033105 8.53086876 88.0985578 8.53086876 88.0985578 10.1305122 80.5033105 10.1305122 80.5033105 17.4463051"></polygon>
                        <path d="M68.9302326,19.0465116 L66.8944676,19.0465116 L64.7560312,12.3061625 L58.310914,12.3061625 L56.1399098,19.0453855 L54.0837209,19.0465116 L60.531598,0 L62.5082993,0 L68.9302326,19.0465116 Z M64.3044976,10.8348959 L61.5527925,1.88229782 L58.7872875,10.8348959 L64.3044976,10.8348959 Z" id="Fill-16"></path>
                        <path d="M51.9627907,13.0300947 C51.9627907,14.9717185 51.3317783,16.4734563 50.0720862,17.535308 C48.8847098,18.5420346 47.2366127,19.0465116 45.1266285,19.0465116 C43.0551349,19.0465116 41.4064546,18.5693187 40.1840868,17.6160466 C38.845664,16.5731267 38.1767442,15.0446617 38.1767442,13.0300947 L38.1767442,0 L40.1648415,0 L40.1648415,13.0373333 C40.1648415,14.4399575 40.5888212,15.5290932 41.4344478,16.30307 C42.2794912,17.0781605 43.4552038,17.4634785 44.9575032,17.4634785 C46.5735248,17.4634785 47.8133884,17.0709219 48.6776771,16.2897064 C49.5419658,15.5073773 49.9752766,14.4221393 49.9752766,13.0373333 L49.9752766,0 L51.9627907,0 L51.9627907,13.0300947 Z" id="Fill-17"></path>
                        <path d="M34.9953488,9.54597847 C34.9953488,10.8274029 34.7127366,12.1011178 34.1458692,13.3610658 C33.7553605,14.2504085 33.2262842,15.1122173 32.5520679,15.9481444 C32.0394225,16.5891319 31.7535241,16.9085243 31.7020405,16.9085243 L34.008397,18.778622 L32.9995372,20.1046512 L30.2144926,17.8793671 C28.7641882,18.7097874 27.2147505,19.1244469 25.5683702,19.1244469 C22.8610988,19.1244469 20.5744594,18.2147291 18.7084522,16.3908883 C16.8413496,14.5686995 15.9069767,12.2866958 15.9069767,9.54873185 C15.9069767,6.88180519 16.8282048,4.62403122 18.6673749,2.77485927 C20.5098311,0.924035297 22.7751102,0 25.4664983,0 C28.155148,0 30.4165932,0.921281914 32.2470001,2.76054168 C34.0785023,4.60035213 34.9953488,6.86418354 34.9953488,9.54597847 M33.0866212,9.51128584 C33.0866212,7.37796478 32.3598259,5.52108336 30.906783,3.93843888 C29.4537401,2.35469304 27.6370257,1.56612419 25.4582829,1.56612419 C23.277897,1.56612419 21.4529671,2.35469304 19.9823979,3.93843888 C18.5096378,5.52108336 17.7746271,7.39613711 17.7746271,9.56580283 C17.7746271,11.7338165 18.518401,13.6105223 20.0070443,15.1915147 C21.4962352,16.7719565 23.330476,17.5649308 25.5114096,17.5649308 C27.7082264,17.5649308 29.5424672,16.7389159 31.0130364,15.0863355 C32.3943308,13.5196607 33.0866212,11.6622286 33.0866212,9.51128584" id="Fill-18"></path>
                        <path d="M14.8465116,19.0465116 L12.8124026,19.0465116 L10.6728622,12.3061625 L4.2299531,12.3061625 L2.05784486,19.0453855 L0,19.0465116 L6.44787709,0 L8.42678638,0 L14.8465116,19.0465116 Z M10.2218807,10.8348959 L7.47127955,1.88229782 L4.70411853,10.8348959 L10.2218807,10.8348959 Z" id="Fill-19"></path>
                    </g>
                    <g id="logo" transform="translate(75.293023, 0.000000)">
                        <mask id="mask-2" fill="white">
                            <use xlink:href="#path-1"></use>
                        </mask>
                        <g id="Clip-8"></g>
                        <path d="M61.5053655,21.4042643 C57.2515032,27.2571977 50.6188363,30.1169841 42.3212518,29.6649068 C34.2102401,29.225347 28.1019414,26.294788 22.1959269,23.4605182 C18.2513828,21.5689186 14.4423496,19.7461658 10.2577157,18.7452406 C13.0160489,18.0110361 15.5927189,17.199319 18.1139081,16.3996379 C24.7087693,14.3082385 30.9304848,12.3333489 38.8274286,12.6000697 C45.6476503,12.8311636 51.3661099,15.6779511 54.4376891,17.2075035 C54.8083801,17.3923786 55.1432293,17.5584773 55.4392911,17.7009852 C58.2516322,19.0528843 60.5376412,19.7331668 62.5457549,20.177541 C62.2992823,20.4452248 62.0483908,20.726389 61.7881707,21.031144 C61.7292529,21.1009536 61.6344935,21.2270923 61.5053655,21.4042643 M37.6186326,2.90857109 C55.0032996,1.67077461 61.2147045,12.2115432 63.1295317,17.0139624 C61.3271392,16.6071409 59.3411197,16.0005196 56.8803213,14.8176079 C56.5965341,14.6813588 56.2759233,14.5210374 55.9209438,14.3443469 C52.6225312,12.7026176 46.4837915,9.64688282 38.9398633,9.39123524 C30.4841828,9.10381226 23.982117,11.1639177 17.1054324,13.344866 C13.3680825,14.5301849 9.5168249,15.7467978 5.13383453,16.664433 C10.3092688,12.1383635 23.4356547,3.91912527 37.6186326,2.90857109 M75.8975013,17.1213248 C75.2715001,16.4805208 74.2350385,16.4603001 73.5830153,17.0731802 C73.0296793,17.5941043 70.6891713,18.4433742 66.9856991,17.7476854 C66.7853787,17.7101327 66.5801485,17.6740243 66.3773732,17.6383973 C65.8220733,15.8897871 64.3942996,12.2495774 61.3025902,8.70902692 C57.439058,4.2830981 50.1524041,-0.800966771 37.4104565,0.10607662 C26.3795788,0.892758627 16.5236195,5.82709393 11.6314815,8.69795367 C7.52442264,11.1085515 -0.189876083,16.3977121 0.00357056253,19.1684312 C0.064452248,20.0225156 0.756244948,20.902598 2.15603273,20.8130492 C9.22027217,20.3624161 14.9107458,23.0936567 20.9355778,25.9847371 C27.0988665,28.9417756 33.4718042,31.9994362 42.1631558,32.4702899 C42.7611711,32.5025468 43.3513306,32.5184345 43.9360894,32.5184345 C52.3446357,32.517953 59.3656688,29.1887572 63.8385088,23.0354018 C63.9062642,22.9424828 63.9558533,22.8717103 63.9838392,22.8365647 C64.9451807,21.7133523 65.5628352,21.128396 65.9590571,20.8274925 C66.09555,20.8520462 66.2344977,20.8766 66.3690266,20.9021166 C67.5341253,21.1202114 68.6295046,21.216982 69.6394532,21.216982 C72.5627561,21.216982 74.7702082,20.4057462 75.8498761,19.3913405 C76.5018993,18.777016 76.5239935,17.7611659 75.8975013,17.1213248" id="Fill-20" fill="#8BD0E4" mask="url(#mask-2)"></path>
                    </g>
                </g>
            </g>
        </g>
    </g>
</svg>